<?xml version="1.0" standalone="no"?>
<!DOCTYPE svg PUBLIC "-//W3C//DTD SVG 20010904//EN"
 "http://www.w3.org/TR/2001/REC-SVG-20010904/DTD/svg10.dtd">
<svg version="1.0" xmlns="http://www.w3.org/2000/svg"
 width="752.000000pt" height="752.000000pt" viewBox="0 0 752.000000 752.000000"
 preserveAspectRatio="xMidYMid meet">
<metadata>
Created by potrace 1.14, written by Peter Selinger 2001-2017
</metadata>
<g transform="translate(0.000000,752.000000) scale(0.100000,-0.100000)"
fill="#000000" stroke="none">
<path d="M61 5419 c-17 -10 -36 -31 -42 -47 -13 -32 -18 -231 -7 -238 5 -3 5
-11 1 -17 -10 -17 -11 -97 -1 -103 5 -3 5 -11 1 -17 -10 -16 -10 -698 0 -704
4 -2 4 -10 0 -16 -4 -6 -7 -482 -8 -1056 0 -1143 -3 -1084 58 -1122 29 -17
180 -18 3708 -18 3665 1 3678 1 3704 21 14 11 23 24 19 29 -3 5 0 8 8 7 11 -3
13 278 15 1615 l2 1617 -28 33 -29 32 -2763 2 c-2166 2 -2766 0 -2778 -10 -12
-9 -13 -9 -7 1 6 9 -58 12 -306 12 -237 0 -317 -3 -327 -12 -11 -11 -13 -10
-7 0 6 9 -114 12 -587 11 -569 0 -595 -1 -626 -20z"/>
</g>
</svg>
